<svg width="16" height="16" viewBox="0 0 16 16" fill="none" xmlns="http://www.w3.org/2000/svg">
<g clip-path="url(#clip0_612_2)">
<path fill-rule="evenodd" clip-rule="evenodd" d="M5.04001 0.303C5.0786 0.213 5.14275 0.13631 5.22453 0.0824451C5.3063 0.0285805 5.40209 -8.6892e-05 5.50001 1.97842e-07H10.5C10.7 1.97842e-07 10.88 0.12 10.96 0.303L13.96 7.303C13.9893 7.37148 14.0029 7.44562 13.9998 7.52003C13.9967 7.59443 13.9771 7.66721 13.9423 7.73305C13.9075 7.79889 13.8585 7.85612 13.7987 7.90058C13.739 7.94503 13.6701 7.97559 13.597 7.99H13.595C13.445 8.02 13.295 8.046 13.145 8.071C11.6088 8.32295 10.0565 8.46498 8.50001 8.496V13.5C8.50001 13.6326 8.44734 13.7598 8.35357 13.8536C8.2598 13.9473 8.13262 14 8.00001 14C7.86741 14 7.74023 13.9473 7.64646 13.8536C7.55269 13.7598 7.50001 13.6326 7.50001 13.5V8.495C5.94355 8.4639 4.39128 8.32188 2.85501 8.07C2.70501 8.045 2.55501 8.02 2.40501 7.99H2.40201C2.32892 7.9755 2.25999 7.94484 2.20027 7.90026C2.14054 7.85569 2.09154 7.79833 2.05684 7.73238C2.02214 7.66643 2.00262 7.59356 1.99971 7.5191C1.9968 7.44463 2.01057 7.37046 2.04001 7.302L5.04001 0.302V0.303ZM3.21001 7.116C4.79447 7.36667 6.39586 7.49505 8.00001 7.5C9.6045 7.4951 11.2062 7.36673 12.791 7.116L10.171 1H5.83001L3.20901 7.116H3.21001Z" fill="black"/>
<path d="M6.493 12.574C6.51469 12.7047 6.48358 12.8387 6.40651 12.9465C6.32944 13.0544 6.21272 13.1272 6.082 13.149C5.37 13.267 4.802 13.444 4.427 13.642C4.28924 13.7082 4.16405 13.7979 4.057 13.907C4.03596 13.9292 4.01842 13.9545 4.005 13.982L4.004 13.986L4 13.996V14L4.002 14.008C4.00593 14.0196 4.01131 14.0307 4.018 14.041C4.05751 14.0988 4.10654 14.1495 4.163 14.191C4.328 14.321 4.598 14.461 4.976 14.586C5.727 14.836 6.796 15 8 15C9.204 15 10.273 14.837 11.024 14.586C11.402 14.46 11.672 14.321 11.837 14.191C11.8938 14.1496 11.9432 14.0989 11.983 14.041C11.9893 14.0306 11.9944 14.0195 11.998 14.008L12 14V13.996C11.9865 13.9628 11.9672 13.9323 11.943 13.906C11.8359 13.7972 11.7107 13.7079 11.573 13.642C11.197 13.444 10.63 13.267 9.918 13.149C9.85168 13.14 9.78783 13.1178 9.73025 13.0837C9.67267 13.0495 9.62253 13.0042 9.58279 12.9504C9.54306 12.8965 9.51454 12.8352 9.49893 12.7701C9.48332 12.705 9.48093 12.6375 9.49191 12.5715C9.5029 12.5054 9.52702 12.4423 9.56286 12.3858C9.5987 12.3292 9.64552 12.2805 9.70055 12.2424C9.75558 12.2043 9.81769 12.1776 9.88322 12.164C9.94874 12.1504 10.0163 12.15 10.082 12.163C10.852 12.29 11.534 12.491 12.039 12.757C12.5 13 13 13.4 13 14C13 14.426 12.74 14.752 12.456 14.977C12.166 15.205 11.776 15.39 11.34 15.535C10.462 15.828 9.281 16 8 16C6.719 16 5.538 15.828 4.66 15.535C4.224 15.39 3.834 15.205 3.544 14.977C3.26 14.752 3 14.426 3 14C3 13.401 3.5 13 3.961 12.757C4.466 12.491 5.148 12.29 5.918 12.163C6.04874 12.1413 6.18275 12.1724 6.29057 12.2495C6.39838 12.3265 6.4712 12.4433 6.493 12.574Z" fill="black"/>
</g>
<defs>
<clipPath id="clip0_612_2">
<rect width="16" height="16" fill="white"/>
</clipPath>
</defs>
</svg>
