<svg width="10" height="10" viewBox="0 0 10 10" fill="none" xmlns="http://www.w3.org/2000/svg">
<path d="M9.50781 2.53125L7.57812 1.42578H7.55469L7.53906 1.41797H6.25C6.20856 1.41797 6.16882 1.43443 6.13951 1.46373C6.11021 1.49304 6.09375 1.53278 6.09375 1.57422C6.09375 1.8643 5.97851 2.1425 5.7734 2.34762C5.56828 2.55273 5.29008 2.66797 5 2.66797C4.70992 2.66797 4.43172 2.55273 4.2266 2.34762C4.02148 2.1425 3.90625 1.8643 3.90625 1.57422C3.90625 1.53278 3.88979 1.49304 3.86048 1.46373C3.83118 1.43443 3.79144 1.41797 3.75 1.41797H2.46093L2.44531 1.42578H2.42187L0.492183 2.53125C0.388572 2.59125 0.31159 2.68833 0.276788 2.80289C0.241985 2.91745 0.251955 3.04094 0.304683 3.14844L1.02343 4.58594C1.06245 4.66336 1.12217 4.72844 1.19595 4.77396C1.26974 4.81947 1.35471 4.84363 1.4414 4.84375H2.34375V8.125C2.34375 8.24932 2.39313 8.36855 2.48104 8.45645C2.56895 8.54436 2.68818 8.59375 2.8125 8.59375H7.1875C7.31182 8.59375 7.43105 8.54436 7.51895 8.45645C7.60686 8.36855 7.65625 8.24932 7.65625 8.125V4.84375H8.55859C8.64529 4.84363 8.73025 4.81947 8.80404 4.77396C8.87783 4.72844 8.93755 4.66336 8.97656 4.58594L9.69531 3.14844C9.74804 3.04094 9.75801 2.91745 9.72321 2.80289C9.68841 2.68833 9.61142 2.59125 9.50781 2.53125ZM1.4414 4.53125C1.41265 4.53216 1.38428 4.52446 1.35992 4.50916C1.33557 4.49385 1.31633 4.47162 1.30468 4.44531L0.585933 3.00781C0.567643 2.9719 0.563933 2.93032 0.57558 2.89174C0.587226 2.85316 0.613328 2.82057 0.648433 2.80078L2.34375 1.83203V4.53125H1.4414ZM7.34375 8.125C7.34375 8.16644 7.32729 8.20618 7.29798 8.23548C7.26868 8.26479 7.22894 8.28125 7.1875 8.28125H2.8125C2.77106 8.28125 2.73131 8.26479 2.70201 8.23548C2.67271 8.20618 2.65625 8.16644 2.65625 8.125V1.71875H3.60156C3.63812 2.06415 3.80121 2.3838 4.05942 2.61612C4.31762 2.84843 4.65267 2.97697 5 2.97697C5.34733 2.97697 5.68237 2.84843 5.94058 2.61612C6.19878 2.3838 6.36187 2.06415 6.39844 1.71875H7.34375V8.125ZM9.41406 3.00781L8.69531 4.44531C8.68366 4.47162 8.66443 4.49385 8.64007 4.50916C8.61572 4.52446 8.58735 4.53216 8.55859 4.53125H7.65625V1.83203L9.35156 2.80078C9.38667 2.82057 9.41277 2.85316 9.42442 2.89174C9.43606 2.93032 9.43235 2.9719 9.41406 3.00781Z" fill="black"/>
</svg>
