<svg width="12" height="12" viewBox="0 0 12 12" fill="none" xmlns="http://www.w3.org/2000/svg">
<path d="M3 2.25C2.60218 2.25 2.22064 2.40804 1.93934 2.68934C1.65804 2.97064 1.5 3.35218 1.5 3.75V6.75C1.5 7.14782 1.65804 7.52936 1.93934 7.81066C2.22064 8.09196 2.60218 8.25 3 8.25H9C9.39782 8.25 9.77936 8.09196 10.0607 7.81066C10.342 7.52936 10.5 7.14782 10.5 6.75V3.75C10.5 3.35218 10.342 2.97064 10.0607 2.68934C9.77936 2.40804 9.39782 2.25 9 2.25H3ZM2.25 3.75C2.25 3.55109 2.32902 3.36032 2.46967 3.21967C2.61032 3.07902 2.80109 3 3 3H9C9.19891 3 9.38968 3.07902 9.53033 3.21967C9.67098 3.36032 9.75 3.55109 9.75 3.75V6.75C9.75 6.94891 9.67098 7.13968 9.53033 7.28033C9.38968 7.42098 9.19891 7.5 9 7.5H3C2.80109 7.5 2.61032 7.42098 2.46967 7.28033C2.32902 7.13968 2.25 6.94891 2.25 6.75V3.75ZM3.375 9C3.27554 9 3.18016 9.03951 3.10984 9.10983C3.03951 9.18016 3 9.27554 3 9.375C3 9.47446 3.03951 9.56984 3.10984 9.64017C3.18016 9.71049 3.27554 9.75 3.375 9.75H8.625C8.72446 9.75 8.81984 9.71049 8.89017 9.64017C8.96049 9.56984 9 9.47446 9 9.375C9 9.27554 8.96049 9.18016 8.89017 9.10983C8.81984 9.03951 8.72446 9 8.625 9H3.375Z" fill="black"/>
</svg>
