<svg width="24" height="24" viewBox="0 0 24 24" fill="none" xmlns="http://www.w3.org/2000/svg">
<path d="M3.16098 4.46898C4.32105 3.30871 5.87698 2.63007 7.51658 2.56923C9.15618 2.5084 10.7581 3.06987 12.001 4.14098C13.2427 3.07165 14.8426 2.51081 16.4802 2.57074C18.1178 2.63067 19.6724 3.30695 20.8327 4.46419C21.9929 5.62142 22.6733 7.17421 22.7375 8.81167C22.8017 10.4491 22.2451 12.0504 21.179 13.295L13.414 21.085C13.0572 21.4419 12.5788 21.6507 12.0745 21.6696C11.5702 21.6885 11.0775 21.5161 10.695 21.187L10.585 21.086L2.82098 13.295C1.75547 12.0515 1.19856 10.4517 1.2616 8.81536C1.32463 7.17904 2.00297 5.6268 3.16098 4.46898V4.46898ZM4.57498 5.88298C3.75722 6.70097 3.28583 7.80242 3.25865 8.95875C3.23146 10.1151 3.65057 11.2375 4.42898 12.093L4.57498 12.247L12 19.672L17.303 14.368L13.768 10.833L12.708 11.893C12.4294 12.1716 12.0988 12.3927 11.7348 12.5436C11.3708 12.6944 10.9807 12.7721 10.5867 12.7722C9.79097 12.7724 9.02777 12.4565 8.46498 11.894C7.90219 11.3315 7.58591 10.5684 7.58573 9.77269C7.58554 8.97697 7.90146 8.21377 8.46398 7.65098L10.566 5.54798C9.72945 4.88036 8.68239 4.53267 7.61267 4.56731C6.54294 4.60195 5.52057 5.01664 4.72898 5.73698L4.57498 5.88298V5.88298ZM13.061 8.71098C13.2485 8.52351 13.5028 8.4182 13.768 8.4182C14.0331 8.4182 14.2875 8.52351 14.475 8.71098L18.717 12.953L19.425 12.247C20.2564 11.4161 20.7298 10.2929 20.7438 9.11754C20.7578 7.94219 20.3114 6.808 19.5 5.95754C18.6886 5.10707 17.5766 4.60785 16.4019 4.56663C15.2272 4.52542 14.083 4.94548 13.214 5.73698L13.061 5.88298L9.87898 9.06498C9.70565 9.2382 9.60196 9.46902 9.58758 9.71365C9.5732 9.95827 9.64914 10.1997 9.80098 10.392L9.87898 10.479C10.0522 10.6523 10.283 10.756 10.5276 10.7704C10.7723 10.7848 11.0137 10.7088 11.206 10.557L11.293 10.479L13.061 8.71098V8.71098Z" fill="black"/>
</svg>
